<mxfile host="app.diagrams.net" modified="2023-05-16T06:18:13.175Z" agent="Mozilla/5.0 (Macintosh; Intel Mac OS X 10_15_7) AppleWebKit/537.36 (KHTML, like Gecko) Chrome/113.0.0.0 Safari/537.36" version="21.3.2" etag="51xw3p_K54UhFCYWs7B0" type="github">
  <diagram name="ページ1" id="r2hjAhLSTHAK90Ck5pae">
    <mxGraphModel>
      <root>
        <mxCell id="0" />
        <mxCell id="1" parent="0" />
      </root>
    </mxGraphModel>
  </diagram>
</mxfile>
